# xmcd CD database file
# Copyright (C) 1993-1998 Ti Kan
#
# Track frame offsets:
#	182
#	12800
#	25085
#	37875
#	50747
#	64780
#	77347
#	89985
#	102197
#	114622
#	126355
#	137772
#	149077
#	160912
#	171030
#	184007
#	193295
#	204607
#	218600
#	232175
#	242740
#	255887
#	267355
#	278722
#	289902
#	300340
#	313682
#
# Disc length: 4389 seconds
#
# Revision: 2
# Processed by: cddbd v1.4b41PL1 Copyright (c) Steve Scherf et al.
# Submitted via: CDmax 1.5.3
#
DISCID=8c11231b
DTITLE=Various Artist - 55 Original Country Classics
DYEAR=1900
DGENRE=
TTITLE0=Oh Lonsome Me  (Don Gibson)
TTITLE1=I Walk The Line (Johnny Cash)
TTITLE2=Four Walls (Jim Reeves)
TTITLE3=I Really Don't Want To Know (Eddy Arnold)
TTITLE4=Crying In The Chapel (Rex Allen)
TTITLE5=White Lightning (George Jones)
TTITLE6=I Fall To Pieces (Patsy Cline)
TTITLE7=Tips Of Fingers (Roy Clark)
TTITLE8=Chattanooga Shoe Shine Boy (Red Foley)
TTITLE9=Take Back Trembling Lips (Ernest Ashworth)
TTITLE10=Crazy Arms (Ray Price)
TTITLE11=Young Love (Sonny James)
TTITLE12=Secretly (Jimmy Rodgers)
TTITLE13=Blue Suede Shoes (Carl Perkins)
TTITLE14=Jambalaya (Hank Williams)
TTITLE15=Happy Birthday (Loretta Lynn)
TTITLE16=Why Baby Why (Red Sovine and Webb Pierce)
TTITLE17=Always Late (Lefty Frizzell)
TTITLE18=Slow Poke (Pee Wee King and His Golden West Cowboys)
TTITLE19=Bye Bye Love (Everly Brothers)
TTITLE20=One By One (Kitty Wells and Red Foley)
TTITLE21=Loose Talk (Carl Smith)
TTITLE22=Gonna Find Me a Bluebird (Marvin Rainwater)
TTITLE23=Let Me Be The One (Hank Locklin)
TTITLE24=Once a Day (Connie Smith)
TTITLE25=My Special Angel (Bobby Helms)
TTITLE26=Mama Sang A Song (Bill Anderson)
EXTD=
EXTT0=
EXTT1=
EXTT2=
EXTT3=
EXTT4=
EXTT5=
EXTT6=
EXTT7=
EXTT8=
EXTT9=
EXTT10=
EXTT11=
EXTT12=
EXTT13=
EXTT14=
EXTT15=
EXTT16=
EXTT17=
EXTT18=
EXTT19=
EXTT20=
EXTT21=
EXTT22=
EXTT23=
EXTT24=
EXTT25=
EXTT26=
PLAYORDER=
